<svg width="1760" height="244" viewBox="0 0 1760 244" fill="none" xmlns="http://www.w3.org/2000/svg">
<path d="M0 3.76276H137.416V46.6002H52.6273V206.372H0V3.76276Z" fill="#19191A"/>
<path d="M163.604 3.76276H246.93C275.388 3.76276 296.342 9.93753 309.791 22.2871C323.435 34.4437 330.257 51.3278 330.257 72.9395C330.257 94.5512 323.435 111.532 309.791 123.881C296.342 136.038 275.388 142.116 246.93 142.116H216.231V206.372H163.604V3.76276ZM241.083 99.2788C254.532 99.2788 263.986 97.0597 269.443 92.6216C274.901 88.1835 277.63 81.6228 277.63 72.9395C277.63 64.2562 274.901 57.6955 269.443 53.2574C263.986 48.8193 254.532 46.6002 241.083 46.6002H216.231V99.2788H241.083Z" fill="#19191A"/>
<path d="M454.952 167.587H386.537L372.503 206.372H322.799L397.355 3.76276H449.982L524.537 206.372H468.986L454.952 167.587ZM401.448 127.644H440.041L420.744 67.4401L401.448 127.644Z" fill="#19191A"/>
<path d="M539.259 163.535H562.649C565.182 156.974 567.229 149.449 568.788 140.958C570.543 132.275 571.907 123.11 572.882 113.461C573.856 103.62 574.539 93.5864 574.928 83.3594C575.513 72.9395 575.805 62.809 575.805 52.968V3.76276H726.086V163.535H746.844V231H701.234V206.372H584.869V231H539.259V163.535ZM673.458 163.535V46.6002H624.924V58.7568C624.924 82.2982 623.95 102.656 622 119.829C620.246 136.81 617.322 151.378 613.229 163.535H673.458Z" fill="#19191A"/>
<path d="M809.842 210.135C807.698 210.135 805.554 210.039 803.409 209.846C801.46 209.653 799.706 209.363 798.147 208.977V165.851C799.706 166.044 801.265 166.236 802.825 166.429C804.384 166.622 806.236 166.719 808.38 166.719C812.668 166.719 816.176 166.526 818.905 166.14C821.634 165.561 823.876 164.693 825.63 163.535C827.384 162.377 828.846 160.834 830.015 158.904C831.185 156.974 832.257 154.562 833.232 151.668L751.367 3.76276H804.579L858.961 106.515L901.647 3.76276H953.105L884.689 157.167C880.206 167.008 875.821 175.306 871.533 182.059C867.244 188.62 862.274 194.023 856.621 198.268C850.969 202.513 844.342 205.504 836.74 207.241C829.333 209.17 820.367 210.135 809.842 210.135Z" fill="#19191A"/>
<path d="M1058.49 210.135C1044.45 210.135 1031.59 208.302 1019.89 204.636C1008.2 200.777 998.159 194.698 989.777 186.401C981.591 178.104 975.159 167.394 970.481 154.273C965.803 141.151 963.464 125.136 963.464 106.225V100.726C963.464 82.9735 965.9 67.7295 970.773 54.9941C975.646 42.2586 982.37 31.8387 990.947 23.7343C999.523 15.6299 1009.56 9.64809 1021.06 5.78886C1032.76 1.92962 1045.23 0 1058.49 0C1070.37 0 1081.49 1.35073 1091.82 4.05219C1102.34 6.75366 1111.5 10.9988 1119.3 16.7877C1127.29 22.5765 1133.72 30.102 1138.6 39.3642C1143.66 48.6263 1146.68 59.9146 1147.66 73.229H1093.28C1092.3 67.826 1090.74 63.2914 1088.6 59.6252C1086.46 55.7659 1083.82 52.6785 1080.71 50.363C1077.59 47.8545 1074.08 46.1178 1070.18 45.153C1066.48 43.9953 1062.58 43.4164 1058.49 43.4164C1052.64 43.4164 1047.18 44.4777 1042.11 46.6002C1037.24 48.5299 1032.95 51.8102 1029.25 56.4413C1025.74 60.8794 1022.91 66.7647 1020.77 74.0973C1018.82 81.4298 1017.85 90.3061 1017.85 100.726V106.804C1017.85 117.996 1018.92 127.451 1021.06 135.17C1023.4 142.695 1026.42 148.87 1030.12 153.694C1033.83 158.325 1038.12 161.702 1042.99 163.824C1047.86 165.754 1053.03 166.719 1058.49 166.719C1068.43 166.719 1076.32 164.403 1082.17 159.772C1088.21 154.948 1091.91 147.326 1093.28 136.906H1147.66C1146.88 150.414 1144.05 161.798 1139.18 171.061C1134.5 180.323 1128.17 187.848 1120.18 193.637C1112.38 199.426 1103.22 203.671 1092.69 206.372C1082.17 208.881 1070.76 210.135 1058.49 210.135Z" fill="#19191A"/>
<path d="M1214.89 98.4104C1208.07 98.4104 1201.64 97.1562 1195.6 94.6477C1189.55 91.9462 1184.29 88.3764 1179.81 83.9383C1175.33 79.5002 1171.72 74.2902 1168.99 68.3084C1166.46 62.3266 1165.19 55.9589 1165.19 49.2052C1165.19 42.4516 1166.46 36.0838 1168.99 30.102C1171.72 24.1202 1175.33 18.9102 1179.81 14.4721C1184.29 10.034 1189.55 6.5607 1195.6 4.05219C1201.64 1.35073 1208.07 0 1214.89 0C1221.72 0 1228.15 1.35073 1234.19 4.05219C1240.23 6.5607 1245.5 10.034 1249.98 14.4721C1254.46 18.9102 1257.97 24.1202 1260.5 30.102C1263.23 36.0838 1264.6 42.4516 1264.6 49.2052C1264.6 55.9589 1263.23 62.3266 1260.5 68.3084C1257.97 74.2902 1254.46 79.5002 1249.98 83.9383C1245.5 88.3764 1240.23 91.9462 1234.19 94.6477C1228.15 97.1562 1221.72 98.4104 1214.89 98.4104ZM1214.89 64.2562C1219.18 64.2562 1222.79 62.809 1225.71 59.9146C1228.64 57.0202 1230.1 53.4504 1230.1 49.2052C1230.1 44.9601 1228.64 41.3903 1225.71 38.4958C1222.79 35.6014 1219.18 34.1542 1214.89 34.1542C1210.61 34.1542 1207 35.6014 1204.08 38.4958C1201.15 41.3903 1199.69 44.9601 1199.69 49.2052C1199.69 53.4504 1201.15 57.0202 1204.08 59.9146C1207 62.809 1210.61 64.2562 1214.89 64.2562Z" fill="#19191A"/>
<path d="M1365.36 3.76276H1417.99V80.7545H1494.01V3.76276H1546.64V206.372H1494.01V123.592H1417.99V206.372H1365.36V3.76276Z" fill="#19191A"/>
<path d="M1587.5 3.76276H1676.67C1702.21 3.76276 1721.5 9.84105 1734.56 21.9976C1747.62 34.1542 1754.15 50.6524 1754.15 71.4923C1754.15 85.9644 1750.64 98.4104 1743.63 108.83C1736.81 119.057 1726.47 126.583 1712.64 131.407L1760 206.372H1701.53L1661.76 136.906H1640.13V206.372H1587.5V3.76276ZM1664.98 96.3844C1679.01 96.3844 1688.56 94.3582 1693.63 90.3061C1698.89 86.0609 1701.53 79.7896 1701.53 71.4923C1701.53 63.1949 1698.89 57.0202 1693.63 52.968C1688.56 48.7228 1679.01 46.6002 1664.98 46.6002H1640.13V96.3844H1664.98Z" fill="#19191A"/>
</svg>
