<svg width="665" height="105" viewBox="0 0 665 105" fill="none" xmlns="http://www.w3.org/2000/svg">
<path d="M0 2.5H52.3166V20.5H20.2274V90H0V2.5Z" fill="#19191A"/>
<path d="M98.6633 2.5C107.737 2.5 115.228 5.5 121.138 11.5C127.048 17.4167 130.003 24.9583 130.003 34.125C130.003 43.2917 127.048 50.875 121.138 56.875C115.228 62.7917 107.737 65.75 98.6633 65.75H81.6823V90H61.4548V2.5H98.6633ZM95.5418 49.25C99.6206 49.25 102.95 47.8333 105.531 45C108.194 42.1667 109.526 38.5417 109.526 34.125C109.526 29.7083 108.194 26.0833 105.531 23.25C102.95 20.4167 99.6206 19 95.5418 19H81.6823V49.25H95.5418Z" fill="#19191A"/>
<path d="M184.098 90L181.102 79.375H150.136L147.139 90H125.788L155.38 2.5H175.733L205.449 90H184.098ZM154.631 63.5H176.607L165.619 24.625L154.631 63.5Z" fill="#19191A"/>
<path d="M283.129 73.125H289.872V105H271.268V90H228.315V105H209.212V73.125H214.206C219.7 73.125 222.447 66.9167 222.447 54.5V2.5H283.129V73.125ZM241.8 19.5V53.5C241.8 61.0833 240.469 67.625 237.805 73.125H263.901V19.5H241.8Z" fill="#19191A"/>
<path d="M349.493 2.5H371.843L328.516 90H306.041L322.273 57L291.308 2.5H314.781L333.386 37L349.493 2.5Z" fill="#19191A"/>
<path d="M415.069 92.5C400.918 92.5 389.556 88.2083 380.982 79.625C372.408 70.9583 368.121 59.8333 368.121 46.25C368.121 32.6667 372.408 21.5833 380.982 13C389.556 4.33333 400.918 0 415.069 0C427.722 0 438.002 3.125 445.91 9.375C453.901 15.5417 458.479 23.8333 459.644 34.25H438.168C437.003 29.25 434.422 25.3333 430.427 22.5C426.431 19.5833 421.354 18.125 415.194 18.125C407.036 18.125 400.668 20.6667 396.09 25.75C391.512 30.75 389.223 37.5833 389.223 46.25C389.223 54.9167 391.512 61.7917 396.09 66.875C400.668 71.875 407.036 74.375 415.194 74.375C421.354 74.375 426.431 72.9583 430.427 70.125C434.422 67.2083 437.003 63.25 438.168 58.25H459.644C458.479 68.6667 453.901 77 445.91 83.25C438.002 89.4167 427.722 92.5 415.069 92.5Z" fill="#19191A"/>
<path d="M508.781 90V2.5H529.008V37.875H559.224V2.5H579.452V90H559.224V55.25H529.008V90H508.781Z" fill="#19191A"/>
<path d="M665 34.125C665 40.4583 663.543 46.125 660.63 51.125C657.716 56.0417 653.721 59.75 648.643 62.25L664.001 90H641.027L627.292 65.75H616.679V90H596.451V2.5H633.66C642.733 2.5 650.225 5.5 656.135 11.5C662.045 17.4167 665 24.9583 665 34.125ZM616.679 19V49.25H630.538C634.617 49.25 637.947 47.8333 640.527 45C643.191 42.1667 644.523 38.5417 644.523 34.125C644.523 29.7083 643.191 26.0833 640.527 23.25C637.947 20.4167 634.617 19 630.538 19H616.679Z" fill="#19191A"/>
</svg>
